# xmcd
#
# Track frame offsets:
#	150
#	21488
#	41795
#	57828
#	73977
#	102139
#	120959
#	137853
#	160748
#	178537
#	201927
#	232105
#	251912
#	292590
#	314499
#
# Disc length: 4777 seconds
#
# Revision: 3
# Processed by: cddbd v1.5.2PL0 Copyright (c) Steve Scherf et al.
# Submitted via: EZCDAudioConverter 6.0.0.1
#
DISCID=dd12a70f
DTITLE=Various Artist - Akella Presents - Modern Electric Blues - vol.15  CD2
DTITLE=New!
DYEAR=2013
DGENRE=Blues
TTITLE0=VARGAS BLUES BAND - Sad Eyes
TTITLE1=The BEAT DADDIES - Delta Vision
TTITLE2=DARCY PERRY - Heavy Rain
TTITLE3=AL BASILE - The Show Must Go On
TTITLE4=BLUES COMPANY - Cold Rain
TTITLE5=MICHAEL POWERS - Baby's Got a Train
TTITLE6=GEORGE TERRY - It's Only Make Believe
TTITLE7=The DUFFY BISHOP BAND - Each Day
TTITLE8=BIG HOUSE - Woodstock Nation
TTITLE9=J.J.CALE and ERIC CLAPTON - Hard To Thril
TTITLE10=The BARRELHOUSE BROTHERS - Can't Get You Off Of My Mind
TTITLE11=The GALES BROS. - Worried Man
TTITLE12=CHRIS BELL and 100% BLUES - Elevator To Heaven
TTITLE13=TY CURTIS BAND - Five Long Years
TTITLE14=BRAD KELSEY - Nasty Weather
EXTD=
EXTT0=
EXTT1=
EXTT2=
EXTT3=
EXTT4=
EXTT5=
EXTT6=
EXTT7=
EXTT8=
EXTT9=
EXTT10=
EXTT11=
EXTT12=
EXTT13=
EXTT14=
PLAYORDER=
